<svg xmlns="http://www.w3.org/2000/svg" width="611.505" height="362.786" viewBox="0 0 611.505 362.786"><defs><style>.a{fill:#beeaff;}.b{fill:#8fd8fc;}.c,.d{fill:none;stroke-miterlimit:10;stroke-width:2px;}.c{stroke:#5e80b7;}.d{stroke:#6471a7;}.e{fill:#6471a7;}.f{fill:#fc2861;font-size:28px;font-family:HomepageBaukasten-Bold, HomepageBaukasten;font-weight:700;}</style></defs><g transform="translate(-654 -319)"><path class="a" d="M784.483,356.962a50,50,0,0,0,4.76-35.022,41.336,41.336,0,0,1-1.224-9.79c0-5.25.281-10.622,2.619-15.3s6.351-8.627,7.22-14.109c.477-2.949,0-5.972.208-8.945.759-9.533,9.582-17.327,19.1-18.27s19.028,4.185,24.768,11.845c2.325,3.108,3.818,6.51,6.791,9.019s6.3,3.757,8.884,7.122c5.531,7.232,7.342,17.132,7.342,26a58.571,58.571,0,0,1-.832,10.059,60.548,60.548,0,0,0,5.494,37.837,47.932,47.932,0,1,1-85.156-.4Z" transform="translate(286.749 164.558)"/><path class="b" d="M627.421,365.142a54.528,54.528,0,0,1-4.674-35.9,70.775,70.775,0,0,0,1.321-13.717,68.209,68.209,0,0,0-7.342-31.278,29.6,29.6,0,0,1-2.313-21.745,51.184,51.184,0,0,0,1.921-13.975c0-14.77-6.29-23.642-14.953-34.594-7.2-9.092-2.215-20.8-7.342-30.433a20.092,20.092,0,0,0-16.569-10.573,19.836,19.836,0,0,0-20.8,19.812v1.224a34.887,34.887,0,0,1-7.183,24.131,48.568,48.568,0,0,0-10.328,30.445,51.387,51.387,0,0,0,1.456,12.335,29.038,29.038,0,0,1-3.243,21.268,67.695,67.695,0,0,0-8.566,33.407,70.253,70.253,0,0,0,3.243,21.194,31.254,31.254,0,0,1-2.79,25.563,59.556,59.556,0,0,0-8.407,30.592c0,32.293,25.379,58.468,56.681,58.468s56.681-26.175,56.681-58.468A59.656,59.656,0,0,0,627.421,365.142Z" transform="translate(229.004 146.099)"/><path class="b" d="M856.438,391.137a54.417,54.417,0,0,0,4.662-35.928,71.861,71.861,0,0,1-1.322-13.717,68.213,68.213,0,0,1,7.342-31.277,29.625,29.625,0,0,0,2.325-21.757,51.128,51.128,0,0,1-1.933-13.974c0-15.553,6.865-29.258,17.279-37.261a11.013,11.013,0,0,0,3.732-12.237,19.824,19.824,0,0,1,17.878-26.04c14.6-.7,18.747,14.109,22.467,25.306,5.531,16.642,15.8,32.2,15.8,50.281a51.4,51.4,0,0,1-1.493,12.335,29.05,29.05,0,0,0,3.255,21.268,67.66,67.66,0,0,1,8.566,33.407,69.878,69.878,0,0,1-3.23,21.194,31.3,31.3,0,0,0,2.79,25.563,59.4,59.4,0,0,1,8.407,30.592c0,32.293-25.367,58.468-56.669,58.468S849.61,451.183,849.61,418.89A59.654,59.654,0,0,1,856.438,391.137Z" transform="translate(302.545 151.919)"/><path class="c" d="M107.55,101.87l20.95,28.475v147.32" transform="translate(678.048 341.811)"/><line class="c" y1="26.676" x2="19.616" transform="translate(806.536 472.156)"/><line class="c" x1="19.616" y2="25.808" transform="translate(806.536 529.021)"/><line class="c" x2="20.937" y2="26.787" transform="translate(785.598 504.792)"/><line class="c" x2="20.937" y2="21.219" transform="translate(785.598 558.891)"/><path class="c" d="M357.01,148.63l22.846,28.439V285.585" transform="translate(733.85 352.271)"/><line class="c" x1="19.824" y2="25.808" transform="translate(1113.706 526.708)"/><line class="c" x2="22.846" y2="21.598" transform="translate(1090.86 557.79)"/><path class="c" d="M436.09,127.52l21.231,26.334v160.67" transform="translate(751.539 347.548)"/><line class="c" x1="20.913" y2="25.808" transform="translate(1208.86 504.571)"/><line class="c" x2="21.231" y2="28.439" transform="translate(1187.629 536.179)"/><line class="c" x1="20.913" y2="25.037" transform="translate(1208.86 561.461)"/><line class="c" x2="21.231" y2="22.124" transform="translate(1187.629 585.004)"/><path class="b" d="M710.962,449.08c-10.94-.624-21.537,2.08-32.673,1.444-2.447-.147-5-.379-6.669-2.08a18.8,18.8,0,0,1,12.7-8.468c3.047-.5,6.241-.257,9.141-1.309s5.164-3.194,8.064-3.9c3.438-.844,7.171.477,10.56-.526,2.937-.869,5.14-3.328,7.966-4.5,3.671-1.53,7.929-.624,11.943-.269,9.789.869,15.321-7.134,24.131-9.5a28.059,28.059,0,0,1,23.813,4.369c2.79,2.117,5.249,4.809,8.566,6.008,9.116,3.353,20.8-5.886,28.279.33,2.178,1.823,3.341,4.613,5.433,6.547,2.8,2.594,6.84,3.267,10.646,3.671a175.741,175.741,0,0,0,21.084,1.162c6.914,0,15.345.343,18.6,6.449-11.894-.122-23.85-.245-35.658,1.224-3.536.453-7.048,1.052-10.609,1.358-2.839.245-5.69.306-8.566.367l-43.967.954a37.266,37.266,0,0,1-10.5-.771c-3.072-.82-5.935-2.447-9.092-2.864-6.118-.82-11.906,2.937-18.025,3.806C727.677,453.84,719.454,449.594,710.962,449.08Z" transform="translate(262.73 201.147)"/><path class="b" d="M545.754,418.023c5.972,1.37,11.637,4.454,17.78,4.466,8.97,0,16.544-6.449,25.159-8.945a29.577,29.577,0,0,1,25.012,4.222c6.118,4.369,10.915,11.27,18.282,12.751,8.933,1.811,18.661-5.164,26.921-1.224,3.585,1.713,6.033,5.213,9.545,7.048,6.975,3.671,16.936.281,22.455,5.91-10.7,3.01-22.027,1.4-33.138.575a225.162,225.162,0,0,0-49.29,1.787c-6.388.942-12.812,2.154-19.249,1.725-8.382-.551-16.336-3.867-24.62-5.176-12.763-2.031-25.7.722-38.608,1.689a139.5,139.5,0,0,1-42.254-3.328c-2.753-.648-6.241-2.888-4.895-5.4,4.748-1.615,9.569,3.867,14.439,2.729,3.218-.746,5.25-4.136,8.419-5.066,4.895-1.419,9.789,3.671,14.868,2.741,6.118-1.114,7.929-8.725,11.98-12.469C532.941,417.876,539.831,416.628,545.754,418.023Z" transform="translate(219.544 199.678)"/><path class="a" d="M726.4,456.255c-3.194.392-7.538,0-8.064-3.182a4.759,4.759,0,0,1,.808-3.169c3.365-5.6,11.16-6.3,17.67-5.666s13.693,1.848,19.089-1.848c3.928-2.668,6.119-7.489,10.206-9.79,9.068-5.164,19.922,4.43,30.3,3.524,5.36-.465,10.01-3.671,14.807-6.118a53.844,53.844,0,0,1,16.03-5.164c7.77-1.224,16.41-.453,22.357,4.7s9.386,14.9,17.364,15.981c5.923.807,11.356-3.818,17.327-3.9,7.342-.11,13.008,6.522,19.946,9.092s14.941,1,21.684,4.014c-14.574,2.937-29.662-1.481-44.506-.4-8.676.636-17.132,3.133-25.844,3.488-7.832.33-15.627-1.089-23.458-1.371-7.342-.257-14.684.49-22.112.734-14.892.5-29.748-1.065-44.505-2.949C752.194,452.474,739.749,454.578,726.4,456.255Z" transform="translate(273.174 202.342)"/><path class="a" d="M532.927,401.368a50,50,0,0,1-4.76-35.022c2.1-8.664,1.028-19.065.734-27.925-.514-15.174-17.132-40.382-33.9-40.382-12.237,0-16.373,10.72-22.785,18.979-5.164,6.669-13.2,10.634-16.446,18.906a55.066,55.066,0,0,0-2.509,28.047,60.721,60.721,0,0,1-5.494,37.837,47.932,47.932,0,1,0,85.156-.4Z" transform="translate(211.482 174.091)"/><path class="c" d="M23.17,192.7l19.579,26.872V319.658" transform="translate(659.173 362.128)"/><line class="c" y1="26.872" x2="22.039" transform="translate(701.922 580.11)"/><line class="c" x2="19.579" y2="21.072" transform="translate(682.343 610.665)"/><path class="d" d="M644.37,287.016h18.563a5.984,5.984,0,0,0,5.984-5.984v-18.5" transform="translate(261.446 175.771)"/><path class="d" d="M728.976,396.607h11.16a7.905,7.905,0,0,0,7.905-7.905V270.445a7.905,7.905,0,0,0-7.905-7.9H668.917L644.37,287.014V388.7a7.905,7.905,0,0,0,7.905,7.905Z" transform="translate(261.446 175.773)"/><circle class="e" cx="2.729" cy="2.729" r="2.729" transform="translate(974.869 474.131)"/><circle class="e" cx="2.729" cy="2.729" r="2.729" transform="translate(934.034 474.131)"/><path class="d" d="M673.26,305.439c3.671-3.157,9.79-5.237,16.655-5.237a27.3,27.3,0,0,1,15.382,4.234" transform="translate(267.908 184.196)"/><path class="d" d="M680.773,372.1a18.514,18.514,0,0,1-11.013,17.744" transform="translate(267.125 200.281)"/><path class="d" d="M695.883,372.1a18.5,18.5,0,0,1-11.013,17.744" transform="translate(270.505 200.281)"/><rect class="a" width="125.428" height="53.879" transform="matrix(0.999, 0.035, -0.035, 0.999, 895.721, 520.16)"/><text class="f" transform="matrix(1, 0.04, -0.04, 1, 903.148, 556.372)"><tspan x="0" y="0">ERROR</tspan></text><path class="d" d="M646.942,310.52s-26.8,15.969-6.424,52.79" transform="translate(258.874 186.506)"/><path class="d" d="M729.09,310.52s26.8,15.969,6.424,52.79" transform="translate(280.397 186.506)"/></g></svg>