<svg width="69" height="33" viewBox="0 0 69 33" fill="none" xmlns="http://www.w3.org/2000/svg">
<path d="M16.2672 23.4425C16.2778 23.4037 16.2884 23.3648 16.299 23.3241C16.2866 23.363 16.276 23.4019 16.2672 23.4425Z" fill="#00C52A"/>
<path d="M20.8426 15.3895V15.6194C20.8426 16.1851 20.5385 16.7102 20.0488 16.9931L13.9812 20.4848C13.9706 20.6244 13.9635 20.7641 13.9635 20.9055C13.9635 22.3889 14.5381 23.7396 15.4769 24.7491C16.5094 25.8594 17.9821 26.5559 19.6139 26.5559C22.729 26.5559 25.2643 24.0207 25.2643 20.9055C25.2643 18.2094 23.369 15.9517 20.8426 15.3895Z" fill="#FAA819"/>
<path d="M15.0189 28.3857C15.3071 28.559 15.6731 28.3521 15.6731 28.0162V25.7462C15.4485 25.5623 15.2364 25.366 15.0401 25.1539C14.0023 24.0383 13.3676 22.5444 13.3676 20.9037C13.3676 20.8807 13.3694 20.8578 13.3694 20.8348L7.80035 24.0401C10.2171 25.4951 12.6004 26.9289 15.0189 28.3857Z" fill="#158560"/>
<path d="M7.30535 23.6777L7.30182 14.0158C7.30182 13.6657 7.48038 13.3404 7.77386 13.153L18.7069 6.16254C19.3876 5.72762 20.2822 6.21558 20.2822 7.0253V15.6176C20.2822 15.9835 20.0859 16.3212 19.7694 16.5051L7.30535 23.6777Z" fill="#00C52A"/>
<path d="M23.125 18.4728C23.0861 18.418 23.0242 18.3844 22.9571 18.3844H21.1679V17.7621C21.1679 17.6896 21.1095 17.6313 21.0371 17.6313H20.0859C20.0134 17.6313 19.9551 17.6896 19.9551 17.7621V18.3844H19.8667C19.7836 18.3844 19.7058 18.4375 19.6775 18.5153L19.3716 19.3215C19.3487 19.3833 19.3557 19.454 19.3946 19.5089C19.4317 19.5637 19.4954 19.5973 19.5626 19.5973H19.9568V20.2196H19.1736C19.0905 20.2196 19.0127 20.2726 18.9845 20.3504L18.6786 21.1566C18.6539 21.2185 18.6627 21.2892 18.7016 21.344C18.7387 21.3988 18.8024 21.4324 18.8695 21.4324H19.9586V22.7866C19.9586 22.8839 19.879 22.9634 19.7818 22.9634H18.0457C17.8406 22.9634 17.6461 22.8821 17.5029 22.7371C17.3579 22.5904 17.2784 22.3977 17.2801 22.1908C17.2837 21.7877 17.5984 21.4571 18.0015 21.4342C18.0846 21.4342 18.1606 21.3794 18.1906 21.3016L18.4965 20.4954C18.5213 20.4335 18.5124 20.3628 18.4735 20.308C18.4364 20.2532 18.3727 20.2196 18.3056 20.2196H17.9997C17.487 20.2302 17.0079 20.4353 16.6437 20.8012C16.2689 21.176 16.0638 21.6746 16.0656 22.2032C16.0691 23.2905 16.9637 24.1745 18.0616 24.1745H20.9663C21.0777 24.1745 21.1679 24.0843 21.1679 23.9729V21.4324H21.9564C22.0395 21.4324 22.1173 21.3794 22.1456 21.3016L22.4514 20.4954C22.4744 20.4335 22.4673 20.3628 22.4284 20.308C22.3913 20.2532 22.3277 20.2196 22.2605 20.2196H21.1679V19.5973H22.6512C22.7361 19.5973 22.8121 19.5442 22.8404 19.4664L23.1462 18.6602C23.1727 18.5984 23.1639 18.5276 23.125 18.4728Z" fill="white"/>
<path d="M61.5834 14.3216C61.4473 14.1413 61.2157 14.0511 60.885 14.0511C60.5368 14.0511 60.2574 14.1395 60.0435 14.3181C59.8313 14.4967 59.6952 14.7265 59.6369 15.0111C59.6192 15.1137 59.6104 15.1897 59.6104 15.2357C59.6104 15.4054 59.6581 15.5504 59.7518 15.6688C59.9003 15.8545 60.1496 15.9482 60.4979 15.9482C60.8267 15.9482 61.099 15.8545 61.3111 15.6688C61.4915 15.5079 61.6117 15.2887 61.67 15.0111C61.6877 14.9281 61.6965 14.8361 61.6965 14.7318C61.6983 14.5621 61.6594 14.4242 61.5834 14.3216Z" fill="#00C52A"/>
<path d="M36.3405 14.0777C36.268 14.0618 36.1778 14.0547 36.1761 14.0547C35.7447 14.0547 35.4583 14.2403 35.3151 15.02C35.1949 15.7077 35.0517 16.4025 34.8802 17.1044L34.7246 17.7373C34.5885 17.6189 34.4718 17.5216 34.3763 17.4474C34.2791 17.3749 34.1694 17.3077 34.0475 17.2476C33.7628 17.1097 33.4004 17.0408 32.9619 17.0408C32.4563 17.0408 31.9719 17.1309 31.5104 17.3095C31.049 17.4881 30.6265 17.7426 30.2428 18.0733C29.8627 18.4092 29.5392 18.8034 29.274 19.2578C29.007 19.7121 28.8125 20.2107 28.6906 20.7517C28.5862 21.2149 28.535 21.6392 28.535 22.0246C28.535 22.5709 28.6304 23.0341 28.8196 23.416C28.9858 23.7555 29.2174 24.0154 29.5109 24.1975C29.8044 24.3795 30.1544 24.4697 30.5611 24.4697C31.0455 24.4697 31.5281 24.323 32.0125 24.0295C32.4333 23.7731 32.817 23.4478 33.1652 23.0589C33.4676 22.7247 33.6956 22.4047 33.8495 22.1024L33.6603 22.9493C33.6285 23.0819 33.6125 23.2428 33.6125 23.4319C33.6125 23.6158 33.6426 23.7802 33.7009 23.9287C33.7593 24.0931 33.8583 24.224 33.9997 24.3212C34.1394 24.4184 34.3197 24.4786 34.546 24.4786C34.668 24.4786 35.3593 24.4591 35.3734 23.9818C35.3787 23.8279 35.285 23.7077 35.1825 23.6087C35.0994 23.5292 35.0729 23.4231 35.0729 23.3029C35.0729 23.1473 35.1065 22.9245 35.1736 22.6346C35.1736 22.6346 36.8355 15.5981 36.8992 15.3665C37.0795 14.4808 36.8037 14.182 36.3405 14.0777ZM33.5984 21.3793C33.2554 21.9575 32.8682 22.433 32.4386 22.8043C32.2265 22.9882 32.0214 23.1296 31.8216 23.2268C31.6236 23.3258 31.438 23.3754 31.2665 23.3754C30.729 23.3754 30.3896 23.1349 30.2499 22.6523C30.1915 22.4737 30.1615 22.2545 30.1615 21.9981C30.1615 21.6534 30.2181 21.245 30.3312 20.7729C30.4125 20.4052 30.5434 20.0604 30.7237 19.7369C30.904 19.4134 31.118 19.1305 31.3619 18.8865C31.6094 18.6425 31.8729 18.4534 32.1522 18.319C32.4298 18.1829 32.7144 18.1157 33.0026 18.1157C33.2519 18.1157 33.4658 18.1404 33.6391 18.2112C34.2508 18.4622 34.4453 18.913 34.4453 18.913L34.3233 19.5265C34.196 20.1612 33.9555 20.7782 33.5984 21.3793Z" fill="#00C52A"/>
<path d="M43.6881 17.923C43.4671 17.6295 43.1206 17.4014 42.6504 17.2405C42.2526 17.108 41.8371 17.0408 41.4022 17.0408C40.9001 17.0408 40.405 17.115 39.9171 17.2618C39.4291 17.4085 38.9818 17.6295 38.5752 17.923C38.1332 18.2447 37.7496 18.6461 37.4296 19.1287C37.1078 19.6114 36.8762 20.1701 36.7312 20.8083C36.6446 21.176 36.6022 21.5243 36.6022 21.8549C36.6022 22.548 36.7984 23.1119 37.1927 23.5486C37.4543 23.8474 37.7955 24.0702 38.2163 24.2169C38.6371 24.3636 39.1162 24.4379 39.6537 24.4379C40.1186 24.4326 40.6048 24.323 41.1122 24.1073C41.3297 24.0154 41.5277 23.9181 41.7063 23.8138C41.7646 23.7802 41.8176 23.7466 41.8689 23.7148C41.9255 23.6918 41.9715 23.6547 42.0086 23.607C42.0545 23.5486 42.0828 23.4744 42.0828 23.3948C42.0828 23.2039 41.9273 23.0483 41.7363 23.0483C41.678 23.0483 41.6232 23.0642 41.5737 23.0907C41.4676 23.1473 41.3544 23.2039 41.2342 23.2604C40.7321 23.485 40.2831 23.5981 39.8853 23.5981C39.6148 23.5981 39.3673 23.5504 39.1463 23.4531C38.9253 23.3559 38.7432 23.2092 38.6035 23.0129C38.3825 22.7141 38.2711 22.3217 38.2711 21.8355C38.2711 21.6251 38.2959 21.3793 38.3454 21.0982L39.9383 21.0841C41.0238 21.0841 41.9166 20.925 42.6168 20.6085C43.3133 20.2956 43.7376 19.8394 43.8915 19.2383C43.9321 19.0633 43.9533 18.906 43.9533 18.7628C43.9516 18.4516 43.8632 18.1705 43.6881 17.923ZM42.3728 19.1411C42.2455 19.5813 41.922 19.896 41.4039 20.0852C41.0291 20.2178 40.5058 20.285 39.8375 20.285L38.5434 20.2779C38.6654 19.8872 38.828 19.5407 39.0313 19.2348C39.2347 18.9289 39.4663 18.6744 39.7226 18.4675C39.9578 18.2748 40.2088 18.1298 40.4758 18.0308C40.7427 17.9318 41.0026 17.8823 41.2554 17.8823C41.4411 17.8876 41.6143 17.9124 41.7734 17.9583C41.9343 18.0043 42.0687 18.0733 42.1765 18.1652C42.348 18.3172 42.4347 18.5135 42.4347 18.7575C42.4329 18.8671 42.4134 18.9944 42.3728 19.1411Z" fill="#00C52A"/>
<path d="M46.8138 18.0397C47.0437 17.9301 47.3354 17.8753 47.689 17.8753C47.933 17.8753 48.138 17.9106 48.306 17.9796C48.3856 18.0132 48.458 18.0485 48.5235 18.0856C48.5411 18.0945 48.5553 18.1051 48.5712 18.1157C48.6366 18.1511 48.7091 18.1723 48.7887 18.1723C49.0397 18.1723 49.243 17.969 49.243 17.7179C49.243 17.5553 49.1564 17.4138 49.0291 17.3325C48.9973 17.3113 48.9619 17.2971 48.9248 17.2848C48.5588 17.1274 48.1769 17.0479 47.7827 17.0479C47.4079 17.0479 47.0543 17.085 46.7254 17.1575C46.0059 17.3095 45.4525 17.6472 45.0636 18.1705C44.9098 18.3774 44.7895 18.6072 44.7047 18.8618C44.6198 19.1164 44.5756 19.3515 44.5756 19.5672C44.5756 19.6627 44.5862 19.7581 44.6092 19.8501C44.7047 20.2266 44.9327 20.5537 45.2934 20.8348C45.5692 21.0452 45.921 21.2821 46.3506 21.5438C46.5274 21.6498 46.6777 21.7577 46.805 21.8673C47.0437 22.0742 47.1639 22.2828 47.1639 22.4932C47.1639 22.5391 47.1568 22.5904 47.1445 22.6452C47.0667 22.9758 46.8775 23.2198 46.5752 23.3754C46.2994 23.5168 45.9741 23.5893 45.5993 23.5893C45.3376 23.5893 45.0866 23.5504 44.8461 23.4726C44.5845 23.386 44.3475 23.2817 44.1354 23.1614V23.1632C44.0664 23.1261 43.9887 23.1031 43.9056 23.1031C43.6368 23.1031 43.4194 23.3206 43.4194 23.5893C43.4194 23.7838 43.5343 23.95 43.6969 24.0277C43.6987 24.0277 43.7005 24.0295 43.7022 24.0295C43.7093 24.033 43.7164 24.0366 43.7235 24.0401C43.7535 24.0543 43.7853 24.0702 43.8172 24.0843C44.3511 24.3142 44.8709 24.4291 45.3765 24.4291C45.8203 24.4291 46.2269 24.3849 46.5964 24.2982C47.369 24.1285 47.9701 23.7537 48.3997 23.1756C48.5624 22.9511 48.6879 22.7035 48.7763 22.4348C48.8647 22.1661 48.9089 21.9221 48.9089 21.7011C48.9089 21.6003 48.8983 21.5031 48.8753 21.4112C48.771 21.0258 48.5376 20.6934 48.1769 20.4123C47.9277 20.2196 47.5688 19.9862 47.0985 19.7104C46.9129 19.6008 46.759 19.4965 46.6371 19.401C46.5151 19.3038 46.4214 19.2101 46.3559 19.1146C46.2905 19.0209 46.2569 18.9201 46.2569 18.8158C46.2569 18.7751 46.264 18.7309 46.2782 18.685C46.3542 18.3897 46.5327 18.174 46.8138 18.0397Z" fill="#00C52A"/>
<path d="M59.232 17.8522C59.2249 17.8858 59.2196 17.9212 59.2161 17.9583C59.2231 17.923 59.2284 17.8876 59.2355 17.854L59.232 17.8522Z" fill="#00C52A"/>
<path d="M59.2461 17.7904C59.2408 17.8099 59.2355 17.8311 59.232 17.8523L59.2355 17.8541C59.2391 17.8328 59.2426 17.8116 59.2461 17.7904Z" fill="#00C52A"/>
<path d="M60.8426 18.0238C60.8426 17.5747 60.4784 17.2087 60.0276 17.2087C59.6581 17.2087 59.3469 17.4545 59.2461 17.7922C59.2426 17.8116 58.1182 22.9776 58.1182 22.9776C58.0863 23.1013 58.0704 23.2322 58.0704 23.3701C58.0704 23.614 58.1252 23.8244 58.2331 24.003C58.3197 24.1462 58.4417 24.2576 58.6026 24.3407C58.7635 24.4238 58.9579 24.4644 59.1895 24.4644C59.3151 24.4644 59.9303 24.498 60.0099 23.9871C60.0346 23.8244 59.925 23.6954 59.7871 23.6017C59.7412 23.5575 59.7129 23.5221 59.6987 23.4532C59.6899 23.4266 59.6846 23.3754 59.6846 23.3011C59.6846 23.1632 59.7111 22.9705 59.7659 22.723L60.3157 20.2514C60.4342 19.7422 60.5297 19.3338 60.6075 19.0262C60.6817 18.7327 60.7524 18.4658 60.8178 18.2253C60.832 18.1599 60.8426 18.0927 60.8426 18.0238Z" fill="#00C52A"/>
<path d="M57.114 19.8925C57.19 19.5672 57.2289 19.2631 57.2289 18.9838C57.2289 18.5577 57.1476 18.19 56.9849 17.8823C56.8453 17.6154 56.6473 17.4103 56.3909 17.2618C56.1346 17.115 55.8252 17.0408 55.4592 17.0408C54.8121 17.0408 54.2146 17.2494 53.6629 17.6666C53.152 18.0574 52.6534 18.639 52.1637 19.4151L52.2999 18.913L52.489 18.197L52.7118 17.3502L52.7524 17.1911C52.8426 16.8693 52.908 16.6288 52.9487 16.468L53.2475 15.363L53.2811 15.241C53.5003 14.3411 53.076 14.0848 52.7631 14.0406C52.5774 14.014 52.4165 14.0353 52.4165 14.0353C51.8296 14.1502 51.7235 14.8414 51.7235 14.8414C51.6616 15.1119 51.4212 16.1055 51.2267 16.9966C51.2267 16.9966 49.6992 23.4319 49.6886 23.4708C49.6532 23.6529 49.6744 23.8545 49.8229 24.0702C49.9485 24.2505 50.1412 24.3849 50.3586 24.4167C50.5195 24.4397 50.6716 24.4149 50.8042 24.3548C51.0464 24.247 51.2232 24.0242 51.2691 23.7555C51.2709 23.7449 51.2744 23.7343 51.2762 23.7237L51.278 23.7113C51.3204 23.4443 51.3752 23.1508 51.4406 22.8326C51.5043 22.5321 51.6581 21.9522 51.7341 21.6286C51.7801 21.4306 51.8526 21.2079 51.9551 20.9603C52.0576 20.7128 52.1796 20.46 52.3246 20.2037C52.6729 19.5884 53.0247 19.1093 53.3818 18.7645C53.8344 18.3279 54.257 18.1104 54.6495 18.1104C54.9659 18.1104 55.2046 18.2023 55.3655 18.3862C55.5264 18.5701 55.6059 18.8423 55.6059 19.2065C55.6059 19.4399 55.567 19.7245 55.491 20.0605L54.8263 22.9245C54.7856 23.0943 54.7662 23.2481 54.7662 23.386C54.7662 23.6706 54.8422 23.904 54.996 24.0879C55.1003 24.2116 55.2294 24.3053 55.3849 24.3672C55.5405 24.4291 55.7049 24.4733 55.887 24.4733C56.032 24.4733 56.6738 24.4344 56.7109 23.9818C56.7233 23.8333 56.6508 23.706 56.527 23.6211C56.5041 23.6052 56.3644 23.538 56.3785 23.3135C56.3874 23.1809 56.405 22.9953 56.4599 22.7566L57.114 19.8925Z" fill="#00C52A"/>
</svg>
