<svg width="530" height="220" viewBox="0 0 530 220" fill="none" xmlns="http://www.w3.org/2000/svg">
<g clip-path="url(#clip0_522_59017)">
<path d="M375 64.8835C374.076 64.8318 373.152 64.74 372.222 64.74C352.389 64.7342 332.556 64.7055 312.723 64.7802C310.748 64.7859 310.214 64.2521 310.22 62.2774C310.295 42.4444 310.266 22.6113 310.26 2.77834C310.26 1.85414 310.168 0.929941 310.117 0C331.706 0 353.302 0 375 0C375 21.6297 375 43.2537 375 64.8835ZM323.383 51.5543C336.327 51.5543 349.134 51.5543 361.924 51.5543C361.924 38.5983 361.924 25.8317 361.924 13.0536C349.002 13.0536 336.23 13.0536 323.383 13.0536C323.383 25.9522 323.383 38.7188 323.383 51.5543Z" fill="black"/>
<path d="M375 220C353.531 220 332.062 220 310.266 220C310.266 219.122 310.266 218.37 310.266 217.612C310.266 197.641 310.294 177.671 310.22 157.7C310.214 155.685 310.811 155.214 312.746 155.22C332.573 155.289 352.4 155.26 372.227 155.254C373.152 155.254 374.076 155.163 375 155.111C375 176.746 375 198.37 375 220ZM361.969 206.992C361.969 194.059 361.969 181.293 361.969 168.44C349.042 168.44 336.229 168.44 323.423 168.44C323.423 181.385 323.423 194.145 323.423 206.992C336.298 206.992 349.013 206.992 361.969 206.992Z" fill="black"/>
<path d="M219.883 0C219.832 2.85871 219.745 5.71742 219.74 8.57612C219.723 17.8124 219.734 27.0544 219.734 36.2907C219.734 37.0599 219.734 37.8233 219.734 38.6614C206.663 38.6614 193.879 38.6614 180.969 38.6614C180.969 34.4136 180.969 30.2977 180.969 25.9121C189.488 25.9121 197.966 25.9121 206.284 25.9121C206.52 25.5447 206.657 25.4299 206.657 25.3151C206.634 16.8767 206.6 8.43836 206.566 0C211.003 0 215.44 0 219.883 0Z" fill="black"/>
<path d="M193.673 0C193.673 4.2077 193.673 8.41539 193.673 12.8527C185.166 12.8527 176.687 12.8527 167.979 12.8527C167.979 21.5494 167.979 30.0222 167.979 38.6385C163.576 38.6385 159.403 38.6385 155 38.6385C155 25.7169 155 12.8584 155 0C167.893 0 180.78 0 193.673 0Z" fill="black"/>
<path d="M375 90.6635C366.493 90.6635 357.986 90.6635 349.226 90.6635C349.226 99.2224 349.226 107.689 349.226 116.312C344.806 116.312 340.633 116.312 336.333 116.312C336.333 103.488 336.333 90.7152 336.333 77.9945C336.545 77.8797 336.66 77.7534 336.781 77.7534C349.519 77.7534 362.257 77.7649 374.994 77.7764C375 82.0702 375 86.3697 375 90.6635Z" fill="black"/>
<path d="M375 142.224C366.504 142.224 358.009 142.224 349.329 142.224C349.329 138.045 349.329 133.871 349.329 129.451C353.456 129.451 357.63 129.451 362.015 129.451C362.015 120.743 362.015 112.282 362.015 103.551C366.481 103.551 370.741 103.551 375 103.551C375 116.444 375 129.337 375 142.224Z" fill="black"/>
<path d="M297.229 0C297.229 4.2077 297.229 8.42114 297.229 12.7723C286.541 12.7723 275.921 12.7723 265.003 12.7723C265.003 8.5302 265.003 4.2651 265.003 0C275.743 0 286.483 0 297.229 0Z" fill="black"/>
<path d="M252.11 0C252.11 4.2077 252.11 8.40965 252.11 12.7666C245.618 12.7666 239.303 12.7666 232.776 12.7666C232.776 8.50724 232.776 4.25362 232.776 0C239.217 0 245.664 0 252.11 0Z" fill="black"/>
<path d="M219.734 219.902C197.995 219.902 176.607 219.902 155.115 219.902C155.115 198.37 155.115 176.936 155.115 155.363C155.924 155.329 156.624 155.272 157.325 155.272C177.301 155.266 197.278 155.295 217.254 155.226C219.189 155.22 219.786 155.691 219.78 157.705C219.705 177.682 219.734 197.659 219.734 217.635C219.734 218.335 219.734 219.036 219.734 219.902ZM206.549 206.952C206.549 194.013 206.549 181.195 206.549 168.434C193.587 168.434 180.832 168.434 168.059 168.434C168.059 181.385 168.059 194.145 168.059 206.952C180.975 206.952 193.742 206.952 206.549 206.952Z" fill="black"/>
<path d="M297.224 51.9216C297.224 73.4366 297.224 94.8195 297.224 116.329C292.953 116.329 288.78 116.329 284.388 116.329C284.388 99.1535 284.388 82.0816 284.388 64.7456C277.856 64.7456 271.524 64.7456 265.101 64.7456C265.101 60.3542 265.101 56.2269 265.101 51.9216C275.738 51.9216 286.357 51.9216 297.224 51.9216Z" fill="black"/>
<path d="M245.577 155.335C252.248 155.335 258.528 155.335 264.905 155.335C264.905 159.651 264.905 163.779 264.905 168.078C254.262 168.078 243.637 168.078 232.753 168.078C232.753 159.582 232.753 151.11 232.753 142.356C228.327 142.356 224.154 142.356 219.86 142.356C219.86 137.947 219.86 133.825 219.86 129.537C228.373 129.537 236.852 129.537 245.577 129.537C245.577 138.039 245.577 146.517 245.577 155.335Z" fill="black"/>
<path d="M219.671 103.545C234.981 103.545 249.848 103.545 264.859 103.545C264.859 107.85 264.859 112.023 264.859 116.329C245.554 116.329 226.278 116.329 206.881 116.329C206.881 107.775 206.881 99.2912 206.881 90.7151C211.141 90.7151 215.274 90.7151 219.671 90.7151C219.671 94.9285 219.671 99.1075 219.671 103.545Z" fill="black"/>
<path d="M155.178 77.7649C168.013 77.7649 180.734 77.7649 193.627 77.7649C193.627 90.6176 193.627 103.39 193.627 116.312C189.471 116.312 185.292 116.312 180.866 116.312C180.866 107.793 180.866 99.32 180.866 90.6807C172.198 90.6807 163.777 90.6807 155.178 90.6807C155.178 86.3468 155.178 82.1678 155.178 77.7649Z" fill="black"/>
<path d="M245.686 64.6022C241.157 64.6022 237.03 64.6022 232.799 64.6022C232.799 51.6864 232.799 38.9025 232.799 25.981C243.522 25.981 254.148 25.981 264.888 25.981C264.888 30.1944 264.888 34.316 264.888 38.7131C258.568 38.7131 252.242 38.7131 245.686 38.7131C245.686 47.4615 245.686 55.94 245.686 64.6022Z" fill="black"/>
<path d="M265.118 194.008C265.118 189.685 265.118 185.552 265.118 181.235C271.501 181.235 277.775 181.235 284.285 181.235C284.285 172.567 284.285 164.089 284.285 155.438C288.699 155.438 292.878 155.438 297.189 155.438C297.189 168.291 297.189 181.075 297.189 194.008C286.512 194.008 275.887 194.008 265.118 194.008Z" fill="black"/>
<path d="M167.841 129.417C172.342 129.417 176.463 129.417 180.717 129.417C180.717 133.716 180.717 137.838 180.717 142.138C172.267 142.138 163.794 142.138 155.161 142.138C155.161 129.434 155.161 116.662 155.161 103.711C159.254 103.711 163.433 103.711 167.841 103.711C167.841 112.133 167.841 120.605 167.841 129.417Z" fill="black"/>
<path d="M155.149 51.8872C167.927 51.8872 180.688 51.8872 193.621 51.8872C193.621 56.1121 193.621 60.2796 193.621 64.5964C180.82 64.5964 168.06 64.5964 155.149 64.5964C155.149 60.3772 155.149 56.1982 155.149 51.8872Z" fill="black"/>
<path d="M265.112 129.491C275.846 129.491 286.449 129.491 297.183 129.491C297.183 133.716 297.183 137.832 297.183 142.132C286.541 142.132 275.881 142.132 265.112 142.132C265.112 137.981 265.112 133.866 265.112 129.491Z" fill="black"/>
<path d="M232.782 90.4683C232.782 86.2204 232.782 82.1046 232.782 77.8337C243.465 77.8337 254.079 77.8337 264.848 77.8337C264.848 81.9668 264.848 86.1401 264.848 90.4683C254.251 90.4683 243.649 90.4683 232.782 90.4683Z" fill="black"/>
<path d="M232.776 219.851C232.776 215.632 232.776 211.504 232.776 207.233C243.436 207.233 254.056 207.233 264.836 207.233C264.836 211.349 264.836 215.528 264.836 219.851C254.268 219.851 243.649 219.851 232.776 219.851Z" fill="black"/>
<path d="M219.625 51.9561C219.625 60.515 219.625 68.9361 219.625 77.5237C215.406 77.5237 211.296 77.5237 206.962 77.5237C206.962 69.1026 206.962 60.6355 206.962 51.9561C211.043 51.9561 215.211 51.9561 219.625 51.9561Z" fill="black"/>
<path d="M310.461 129.457C319.008 129.457 327.424 129.457 336.023 129.457C336.023 133.659 336.023 137.821 336.023 142.149C327.567 142.149 319.112 142.149 310.461 142.149C310.461 138.022 310.461 133.866 310.461 129.457Z" fill="black"/>
<path d="M277.982 38.6443C277.982 34.3448 277.982 30.2806 277.982 26.0327C284.337 26.0327 290.651 26.0327 297.143 26.0327C297.143 30.1715 297.143 34.3333 297.143 38.6443C290.806 38.6443 284.492 38.6443 277.982 38.6443Z" fill="black"/>
<path d="M252.018 181.356C252.018 185.655 252.018 189.719 252.018 193.967C245.664 193.967 239.349 193.967 232.857 193.967C232.857 189.834 232.857 185.672 232.857 181.356C239.189 181.356 245.509 181.356 252.018 181.356Z" fill="black"/>
<path d="M297.229 207.262C297.229 211.481 297.229 215.609 297.229 219.868C290.823 219.868 284.497 219.868 278.039 219.868C278.039 215.689 278.039 211.567 278.039 207.262C284.336 207.262 290.656 207.262 297.229 207.262Z" fill="black"/>
<path d="M310.432 103.637C314.749 103.637 318.876 103.637 323.118 103.637C323.118 107.919 323.118 112.098 323.118 116.369C318.859 116.369 314.726 116.369 310.432 116.369C310.432 112.161 310.432 107.988 310.432 103.637Z" fill="black"/>
<path d="M310.473 77.7764C314.686 77.7764 318.813 77.7764 323.096 77.7764C323.096 82.0242 323.096 86.1918 323.096 90.4913C318.905 90.4913 314.795 90.4913 310.473 90.4913C310.473 86.3582 310.473 82.2022 310.473 77.7764Z" fill="black"/>
<path d="M206.623 142.212C202.33 142.212 198.219 142.212 193.943 142.212C193.943 137.987 193.943 133.82 193.943 129.52C198.174 129.52 202.335 129.52 206.623 129.52C206.623 133.745 206.623 137.861 206.623 142.212Z" fill="black"/>
<path d="M348.956 38.6901C344.754 38.6901 340.638 38.6901 336.367 38.6901C336.367 34.448 336.367 30.2862 336.367 25.981C340.535 25.981 344.645 25.981 348.956 25.981C348.956 30.1083 348.956 34.2643 348.956 38.6901Z" fill="black"/>
<path d="M349.042 194.054C344.737 194.054 340.627 194.054 336.367 194.054C336.367 189.794 336.367 185.632 336.367 181.35C340.609 181.35 344.765 181.35 349.042 181.35C349.042 185.592 349.042 189.702 349.042 194.054Z" fill="black"/>
<path d="M193.673 181.35C193.673 185.581 193.673 189.691 193.673 193.979C189.482 193.979 185.321 193.979 181.004 193.979C181.004 189.811 181.004 185.65 181.004 181.35C185.183 181.35 189.293 181.35 193.673 181.35Z" fill="black"/>
</g>
<defs>
<clipPath id="clip0_522_59017">
<rect width="220" height="220" fill="white" transform="translate(155)"/>
</clipPath>
</defs>
</svg>
